<?xml version="1.0" standalone="no"?>
<!DOCTYPE svg PUBLIC "-//W3C//DTD SVG 20010904//EN"
 "http://www.w3.org/TR/2001/REC-SVG-20010904/DTD/svg10.dtd">
<svg version="1.0" xmlns="http://www.w3.org/2000/svg"
 width="512.000000pt" height="512.000000pt" viewBox="0 0 512.000000 512.000000"
 preserveAspectRatio="xMidYMid meet">

<g transform="translate(0.000000,512.000000) scale(0.100000,-0.100000)"
fill="#1cc88a" stroke="none">
<path d="M1972 5007 c-22 -23 -22 -29 -22 -334 l0 -311 -55 -42 c-123 -95
-227 -228 -301 -384 -82 -175 -105 -316 -104 -639 l2 -209 -45 -28 c-66 -41
-99 -104 -105 -195 -4 -64 -1 -80 22 -131 32 -69 64 -106 124 -141 37 -22 42
-29 42 -61 1 -57 36 -203 70 -289 85 -213 248 -406 434 -513 l57 -32 -3 -91
-3 -90 -99 -33 c-54 -19 -102 -31 -106 -29 -4 2 -10 30 -13 62 -8 73 -62 184
-119 242 -98 99 -191 141 -333 148 -83 5 -92 4 -109 -16 -25 -28 -34 -169 -16
-254 22 -108 93 -216 189 -288 l34 -25 -99 -33 c-55 -19 -126 -48 -159 -64
-79 -39 -183 -144 -224 -225 -58 -115 -61 -142 -61 -524 0 -335 1 -349 20
-368 20 -20 33 -20 1570 -20 1537 0 1550 0 1570 20 19 19 20 33 20 368 0 382
-3 409 -61 524 -41 81 -145 186 -224 226 -33 16 -227 86 -430 155 -204 69
-378 128 -387 132 -15 6 -18 21 -18 95 l0 89 56 32 c186 106 349 299 434 512
34 86 69 232 70 289 0 32 5 39 43 61 59 35 91 72 123 141 23 51 26 67 22 131
-6 94 -40 154 -109 198 l-49 30 0 261 c1 221 -2 275 -18 351 -51 236 -188 463
-367 605 l-65 52 0 312 0 313 -23 21 c-13 12 -33 22 -44 22 -12 0 -139 -58
-282 -130 l-261 -130 -261 130 c-143 72 -270 130 -283 130 -12 0 -32 -10 -44
-23z m348 -277 c121 -60 229 -110 240 -110 11 0 119 50 240 110 121 61 222
110 225 110 3 0 5 -26 5 -58 l0 -57 -235 -118 -235 -117 -235 117 -235 118 0
57 c0 32 2 58 5 58 3 0 104 -49 225 -110z m475 -277 l236 117 -3 -117 -3 -118
-232 -128 -233 -127 -234 127 -235 128 -1 117 0 118 235 -117 235 -117 235
117z m-518 -378 c145 -80 272 -145 283 -145 11 0 139 66 286 146 309 170 273
166 388 43 152 -164 240 -373 247 -589 1 -41 2 -121 1 -177 l-2 -103 -52 21
c-137 53 -278 166 -358 286 -70 104 -70 109 -16 182 108 147 126 206 75 243
-47 35 -71 18 -156 -110 -240 -364 -528 -530 -987 -571 -124 -11 -139 -18
-200 -100 -45 -59 -74 -71 -122 -48 l-34 17 0 173 c0 95 5 210 10 256 21 160
88 324 184 450 49 64 161 171 178 171 7 0 130 -65 275 -145z m657 -570 c90
-153 272 -299 469 -375 l72 -28 6 -51 c8 -64 18 -76 74 -90 57 -14 85 -50 85
-108 0 -24 -7 -57 -15 -72 -18 -37 -71 -81 -95 -81 -10 0 -30 -10 -44 -22 -23
-20 -27 -35 -36 -122 -14 -139 -33 -205 -95 -331 -110 -225 -299 -388 -520
-450 -92 -26 -388 -32 -497 -10 -247 50 -455 215 -577 461 -51 104 -79 203
-91 328 -11 110 -21 128 -79 147 -70 22 -111 79 -111 152 0 56 28 93 81 107
22 6 47 19 56 30 13 15 25 17 68 13 78 -8 150 27 203 99 l40 55 93 7 c323 24
610 141 814 330 33 30 63 55 67 56 3 0 18 -20 32 -45z m-1387 -1770 c103 -47
170 -144 188 -272 l7 -53 -31 0 c-55 0 -139 39 -189 88 -60 59 -93 129 -100
211 l-5 64 39 -7 c21 -4 62 -18 91 -31z m778 -110 c47 -8 143 -14 235 -14 92
0 188 6 235 14 44 8 83 15 88 15 4 0 7 -31 7 -70 l0 -70 -47 -34 c-79 -57
-145 -78 -261 -84 -87 -4 -113 -1 -172 18 -39 13 -94 39 -123 59 l-52 37 -3
72 c-2 40 1 72 5 72 4 0 44 -7 88 -15z m-135 -270 c105 -77 227 -115 370 -115
143 0 265 38 370 115 l47 35 108 -36 107 -37 -28 -23 c-110 -92 -253 -164
-394 -200 -105 -27 -316 -27 -420 0 -146 37 -271 99 -373 185 l-47 39 102 35
c57 20 105 36 107 36 2 1 25 -15 51 -34z m1379 -166 c113 -38 224 -81 246 -94
58 -34 132 -117 163 -183 l27 -57 3 -312 3 -313 -536 0 -535 0 13 33 c7 17
101 249 208 514 107 266 196 483 198 483 2 0 96 -32 210 -71z m-1801 -26 c-9
-147 -102 -263 -240 -301 -36 -10 -37 -9 -43 20 -16 70 24 192 84 260 36 41
140 98 179 98 24 0 25 -1 20 -77z m-378 -35 c0 -2 -8 -25 -19 -53 -28 -76 -34
-146 -21 -242 10 -67 18 -92 36 -110 27 -27 32 -28 131 -7 139 28 253 105 324
216 22 35 34 46 39 36 7 -11 265 -647 291 -715 l9 -23 -536 0 -535 0 3 312 3
313 27 57 c33 71 106 151 173 189 43 25 75 36 75 27z m905 -165 c89 -23 118
-26 265 -26 147 0 176 3 265 26 56 15 147 50 206 80 89 44 106 49 99 32 -13
-33 -279 -694 -312 -772 l-30 -73 -228 0 -228 0 -30 73 c-33 78 -299 739 -312
772 -7 17 10 12 99 -32 59 -30 150 -65 206 -80z"/>
<path d="M3307 643 c-19 -23 -23 -41 -14 -74 10 -40 45 -49 186 -49 115 0 131
2 155 21 19 15 26 30 26 53 0 60 -18 66 -187 66 -130 0 -152 -2 -166 -17z"/>
</g>
</svg>
