<?xml version="1.0" standalone="no"?>
<!DOCTYPE svg PUBLIC "-//W3C//DTD SVG 20010904//EN"
 "http://www.w3.org/TR/2001/REC-SVG-20010904/DTD/svg10.dtd">
<svg version="1.0" xmlns="http://www.w3.org/2000/svg"
 width="512.000000pt" height="512.000000pt" viewBox="0 0 512.000000 512.000000"
 preserveAspectRatio="xMidYMid meet">

<g transform="translate(0.000000,512.000000) scale(0.100000,-0.100000)"
fill="#f6c23e" stroke="none">
<path d="M2310 5110 c-365 -35 -690 -128 -1005 -288 -236 -120 -305 -203 -305
-361 0 -78 28 -146 92 -225 76 -94 102 -105 152 -65 42 33 36 74 -25 150 -58
72 -69 96 -69 145 0 88 40 127 229 223 271 138 538 219 871 263 141 18 517 15
670 -6 325 -44 635 -143 885 -282 118 -66 162 -105 176 -156 17 -63 -3 -107
-99 -226 -48 -60 -148 -183 -222 -275 l-135 -166 -956 -1 -957 0 -101 124
c-56 68 -111 126 -122 129 -49 13 -107 -40 -95 -87 3 -14 53 -81 110 -149 92
-109 106 -131 114 -177 7 -37 6 -53 -2 -55 -129 -39 -188 -78 -241 -158 -40
-61 -69 -164 -62 -221 5 -34 1 -45 -28 -79 -45 -53 -98 -156 -126 -247 -33
-106 -33 -274 0 -380 39 -127 87 -206 181 -300 140 -141 292 -204 490 -204 96
0 125 5 248 40 22 6 22 5 22 -82 l-1 -89 -85 -74 c-78 -67 -98 -79 -219 -126
l-134 -53 -22 24 c-29 30 -86 46 -125 35 -42 -12 -601 -229 -633 -245 -70 -36
-120 -119 -121 -197 0 -60 15 -105 53 -153 l30 -39 -36 -111 c-75 -227 -115
-438 -127 -666 -8 -161 -2 -200 38 -244 53 -57 46 -56 614 -56 560 1 547 -1
567 51 11 30 -8 83 -34 93 -9 3 -106 6 -216 6 l-199 0 0 53 c0 28 7 93 15 142
20 124 19 148 -8 173 -28 27 -67 28 -96 5 -23 -20 -46 -113 -56 -233 -3 -41
-8 -90 -11 -107 l-5 -33 -229 0 -230 0 0 94 c0 116 22 293 56 444 25 114 89
320 103 335 5 4 178 74 387 155 350 136 380 150 401 181 27 40 31 107 8 137
-8 10 -15 23 -15 27 0 8 70 41 74 35 1 -2 58 -122 126 -268 197 -423 190 -409
232 -437 33 -23 46 -25 101 -21 l62 5 41 -87 41 -86 -84 -257 -84 -257 -88 0
c-79 0 -90 -2 -109 -23 -31 -33 -29 -80 4 -106 27 -21 28 -21 1226 -21 1304 0
1235 -3 1290 56 40 44 46 83 37 244 -13 247 -47 423 -125 664 l-27 84 31 40
c45 56 62 102 62 167 0 89 -53 177 -124 205 -160 64 -618 239 -640 244 -21 5
-43 0 -82 -19 l-52 -26 -151 63 c-133 56 -159 71 -231 133 l-80 70 0 93 0 93
95 91 c201 192 301 376 369 679 5 22 13 28 48 33 109 16 210 92 260 194 30 61
33 74 33 162 0 76 -5 104 -22 142 -44 96 -153 185 -250 206 l-38 8 3 49 c3 47
11 57 234 329 138 168 241 303 256 336 21 44 26 70 26 130 -1 131 -54 210
-202 297 -267 157 -604 272 -947 323 -161 24 -521 34 -675 20z m1150 -1443 c0
-8 -14 -42 -31 -75 -34 -69 -88 -119 -165 -154 l-49 -23 -640 0 c-595 0 -644
1 -693 18 -89 31 -178 128 -207 225 l-6 22 895 0 c742 0 896 -2 896 -13z
m-1938 -394 c-2 -109 -6 -199 -7 -201 -10 -11 -89 45 -111 78 -69 104 -39 233
71 301 17 11 35 19 41 19 8 0 10 -58 6 -197z m2178 159 c124 -99 96 -295 -50
-356 l-36 -15 -1 172 c0 95 -4 188 -8 206 l-7 34 33 -7 c19 -3 50 -19 69 -34z
m-1863 -144 l58 -23 665 0 c748 0 719 -3 839 75 l64 41 -6 -203 c-6 -228 -27
-348 -88 -494 -114 -274 -328 -487 -574 -570 -103 -35 -272 -44 -384 -20 -101
21 -239 91 -337 170 -270 217 -404 542 -404 982 0 66 3 123 6 126 3 3 27 -9
54 -27 28 -19 76 -44 107 -57z m-420 -342 c28 -14 69 -28 91 -32 39 -6 40 -8
47 -53 10 -74 71 -246 122 -343 50 -98 111 -185 180 -259 l45 -48 -44 -12
c-64 -18 -203 -15 -273 5 -220 64 -376 250 -400 476 -10 96 9 191 56 289 l41
83 42 -40 c22 -22 64 -52 93 -66z m821 -956 c162 -66 372 -80 545 -36 52 13
108 31 125 40 49 25 52 22 52 -54 l0 -71 -192 -324 c-106 -179 -195 -325 -198
-325 -3 0 -96 154 -207 342 -201 339 -203 342 -203 400 0 32 1 58 3 58 1 0 35
-13 75 -30z m12 -534 c166 -281 171 -290 152 -305 -11 -9 -63 -52 -116 -95
-53 -43 -99 -76 -102 -73 -6 5 -294 616 -294 623 0 11 175 153 181 147 4 -5
84 -138 179 -297z m928 217 l73 -68 -144 -308 c-79 -169 -147 -310 -150 -314
-4 -3 -50 30 -102 73 -53 44 -106 86 -117 95 -19 15 -15 23 137 280 87 145
166 279 177 296 24 40 25 39 126 -54z m310 -138 c2 -2 -8 -20 -23 -40 -14 -21
-25 -51 -25 -67 0 -39 26 -93 53 -111 12 -7 177 -73 367 -146 190 -73 352
-137 361 -141 19 -11 80 -196 114 -345 33 -147 55 -325 55 -441 l0 -94 -230 0
-229 0 -5 33 c-3 17 -8 66 -11 107 -10 120 -33 213 -56 232 -29 24 -68 23 -96
-4 -27 -25 -28 -49 -8 -173 8 -49 15 -114 15 -142 l0 -53 -408 0 -407 0 -86
258 -86 258 44 88 c35 70 47 86 61 81 64 -25 132 -12 174 33 14 15 85 155 158
312 73 157 144 308 158 337 l25 51 41 -15 c23 -9 42 -17 44 -18z m-2002 -30
c27 -32 43 -59 38 -64 -8 -8 -658 -261 -669 -261 -11 0 -45 66 -45 86 0 46 33
64 325 178 160 63 293 115 297 115 3 1 28 -24 54 -54z m2519 -70 c154 -59 290
-117 303 -128 14 -13 22 -32 22 -53 0 -20 -9 -43 -22 -59 l-23 -26 -330 127
c-181 70 -334 130 -338 134 -10 9 83 122 97 117 6 -3 137 -53 291 -112z
m-1344 -417 c49 -39 89 -73 89 -75 0 -2 -23 -48 -50 -103 l-50 -100 -85 0 -85
0 -45 91 c-26 50 -45 97 -43 105 2 11 165 153 177 154 2 0 44 -32 92 -72z m58
-641 c39 -116 71 -215 71 -220 0 -4 -102 -7 -226 -7 -177 0 -225 3 -222 13 3
6 35 105 72 220 l67 207 83 0 84 0 71 -213z"/>
<path d="M2466 4615 c-21 -7 -55 -27 -76 -44 l-39 -31 -210 0 c-198 0 -212 -1
-231 -20 -30 -30 -27 -83 6 -109 25 -19 40 -21 198 -21 l171 0 0 -40 1 -40
-97 0 c-82 0 -100 -3 -123 -21 -33 -26 -36 -79 -6 -109 18 -18 33 -20 159 -20
l139 0 57 -35 c63 -37 124 -51 186 -41 42 7 133 48 144 66 4 6 63 10 151 10
131 0 146 2 164 20 30 30 27 83 -6 109 -23 18 -41 21 -123 21 l-97 0 1 40 0
40 171 0 c158 0 173 2 198 21 33 26 36 79 6 109 -19 19 -33 20 -230 20 l-210
0 -45 35 c-25 19 -62 39 -83 45 -51 14 -129 12 -176 -5z m154 -150 c38 -19 60
-63 60 -116 0 -70 -79 -132 -147 -114 -14 3 -41 21 -60 40 -27 27 -33 41 -33
74 0 103 91 162 180 116z"/>
</g>
</svg>
