<?xml version="1.0" encoding="UTF-8"?><svg id="Layer_1" xmlns="http://www.w3.org/2000/svg" xmlns:xlink="http://www.w3.org/1999/xlink" viewBox="0 0 1080 1080"><defs><style>.cls-1{fill:url(#linear-gradient-6);}.cls-2{fill:url(#linear-gradient-2);filter:url(#outer-glow-12);}.cls-3{fill:url(#linear-gradient-5);}.cls-4{filter:url(#outer-glow-14);}.cls-5{fill:url(#linear-gradient-3);}.cls-6{fill:url(#linear-gradient);}.cls-7{fill:url(#linear-gradient-4);filter:url(#outer-glow-13);}</style><linearGradient id="linear-gradient" x1="67.14" y1="551.18" x2="1033.11" y2="551.18" gradientUnits="userSpaceOnUse"><stop offset="0" stop-color="#000"/><stop offset=".03" stop-color="#080808"/><stop offset=".19" stop-color="#2a2a2a"/><stop offset=".32" stop-color="#3f3f3f"/><stop offset=".4" stop-color="#474747"/><stop offset=".48" stop-color="#5b5b5b"/><stop offset=".54" stop-color="#686868"/><stop offset=".61" stop-color="#656565"/><stop offset=".64" stop-color="#5e5e5e"/><stop offset=".66" stop-color="#525252"/><stop offset=".68" stop-color="#404040"/><stop offset=".68" stop-color="#3b3b3b"/><stop offset=".73" stop-color="#1b1b1b"/><stop offset=".77" stop-color="#000"/><stop offset=".8" stop-color="#050505"/><stop offset=".83" stop-color="#141414"/><stop offset=".86" stop-color="#2d2d2d"/><stop offset=".87" stop-color="#3b3b3b"/><stop offset="1" stop-color="#3b3b3b"/></linearGradient><linearGradient id="linear-gradient-2" x1="161.32" y1="551.18" x2="938.93" y2="551.18" gradientUnits="userSpaceOnUse"><stop offset="0" stop-color="#4d4d4d"/><stop offset="0" stop-color="#4a4a4a"/><stop offset=".09" stop-color="#2a2a2a"/><stop offset=".17" stop-color="#121212"/><stop offset=".25" stop-color="#040404"/><stop offset=".32" stop-color="#000"/><stop offset=".41" stop-color="#1c1c1c"/><stop offset=".55" stop-color="#3f3f3f"/><stop offset=".66" stop-color="#555"/><stop offset=".73" stop-color="#5d5d5d"/><stop offset=".79" stop-color="#565656"/><stop offset=".86" stop-color="#454545"/><stop offset=".95" stop-color="#282828"/><stop offset="1" stop-color="#171717"/></linearGradient><filter id="outer-glow-12" filterUnits="userSpaceOnUse"><feOffset dx="0" dy="0"/><feGaussianBlur result="blur" stdDeviation="5"/><feFlood flood-color="#000" flood-opacity="1"/><feComposite in2="blur" operator="in"/><feComposite in="SourceGraphic"/></filter><linearGradient id="linear-gradient-3" x1="67.14" y1="551.18" x2="1033.11" y2="551.18" gradientUnits="userSpaceOnUse"><stop offset="0" stop-color="#3b3b3b"/><stop offset=".02" stop-color="#2c2c2c"/><stop offset=".05" stop-color="#181818"/><stop offset=".09" stop-color="#0a0a0a"/><stop offset=".14" stop-color="#020202"/><stop offset=".22" stop-color="#000"/><stop offset=".54" stop-color="#202020"/><stop offset=".85" stop-color="#000"/><stop offset=".89" stop-color="#020202"/><stop offset=".92" stop-color="#0c0c0c"/><stop offset=".95" stop-color="#1c1c1c"/><stop offset=".97" stop-color="#323232"/><stop offset="1" stop-color="#4f4f4f"/><stop offset="1" stop-color="#565656"/></linearGradient><linearGradient id="linear-gradient-4" x1="138.69" y1="551.18" x2="961.56" y2="551.18" gradientUnits="userSpaceOnUse"><stop offset="0" stop-color="#f8e67d"/><stop offset=".05" stop-color="#d4b14b"/><stop offset=".13" stop-color="#a56c0b"/><stop offset=".17" stop-color="#b68522"/><stop offset=".26" stop-color="#d2af49"/><stop offset=".34" stop-color="#e7cd65"/><stop offset=".4" stop-color="#f3df76"/><stop offset=".45" stop-color="#f8e67d"/><stop offset=".52" stop-color="#f4e077"/><stop offset=".6" stop-color="#e9d068"/><stop offset=".7" stop-color="#d7b550"/><stop offset=".8" stop-color="#be912d"/><stop offset=".89" stop-color="#a56c0b"/><stop offset=".9" stop-color="#b68522"/><stop offset=".93" stop-color="#d2af49"/><stop offset=".96" stop-color="#e7cd65"/><stop offset=".98" stop-color="#f3df76"/><stop offset="1" stop-color="#f8e67d"/></linearGradient><filter id="outer-glow-13" filterUnits="userSpaceOnUse"><feOffset dx="0" dy="0"/><feGaussianBlur result="blur-2" stdDeviation="5"/><feFlood flood-color="#000" flood-opacity="1"/><feComposite in2="blur-2" operator="in"/><feComposite in="SourceGraphic"/></filter><filter id="outer-glow-14" filterUnits="userSpaceOnUse"><feOffset dx="0" dy="0"/><feGaussianBlur result="blur-3" stdDeviation="5"/><feFlood flood-color="#000" flood-opacity=".75"/><feComposite in2="blur-3" operator="in"/><feComposite in="SourceGraphic"/></filter><linearGradient id="linear-gradient-5" x1="541.57" y1="563.77" x2="541.57" y2="418.48" gradientUnits="userSpaceOnUse"><stop offset="0" stop-color="#f8e67d"/><stop offset=".05" stop-color="#f3df76"/><stop offset=".12" stop-color="#e7cd65"/><stop offset=".2" stop-color="#d2af49"/><stop offset=".29" stop-color="#b68522"/><stop offset=".34" stop-color="#a56c0b"/><stop offset=".38" stop-color="#be912d"/><stop offset=".43" stop-color="#d7b550"/><stop offset=".48" stop-color="#e9d068"/><stop offset=".52" stop-color="#f4e077"/><stop offset=".55" stop-color="#f8e67d"/><stop offset=".6" stop-color="#f3df76"/><stop offset=".66" stop-color="#e7cd65"/><stop offset=".74" stop-color="#d2af49"/><stop offset=".83" stop-color="#b68522"/><stop offset=".87" stop-color="#a56c0b"/><stop offset=".95" stop-color="#d4b14b"/><stop offset="1" stop-color="#f8e67d"/></linearGradient><linearGradient id="linear-gradient-6" x1="535.53" y1="661.52" x2="535.53" y2="584.31" gradientUnits="userSpaceOnUse"><stop offset="0" stop-color="#a56c0b"/><stop offset=".01" stop-color="#ad7816"/><stop offset=".06" stop-color="#c79f3a"/><stop offset=".1" stop-color="#dcbe57"/><stop offset=".14" stop-color="#ebd46c"/><stop offset=".19" stop-color="#f4e178"/><stop offset=".22" stop-color="#f8e67d"/><stop offset=".27" stop-color="#f4e077"/><stop offset=".34" stop-color="#e8d068"/><stop offset=".41" stop-color="#d6b64f"/><stop offset=".45" stop-color="#c9a33d"/><stop offset=".57" stop-color="#c38f1b"/><stop offset=".75" stop-color="#e6c95c"/><stop offset=".84" stop-color="#f8e67d"/><stop offset=".86" stop-color="#f4e077"/><stop offset=".9" stop-color="#e9d167"/><stop offset=".94" stop-color="#d8b94c"/><stop offset=".98" stop-color="#c19728"/><stop offset="1" stop-color="#b48514"/></linearGradient></defs><path class="cls-6" d="m742.56,68.2h-384.87c-160.47,0-290.55,130.08-290.55,290.55v384.87c0,160.47,130.08,290.55,290.55,290.55h384.87c160.47,0,290.55-130.08,290.55-290.55v-384.87c0-160.47-130.08-290.55-290.55-290.55Zm219,642.06c0,34.06-6.67,67.11-19.84,98.23-12.71,30.05-30.91,57.04-54.08,80.21-23.17,23.17-50.16,41.37-80.21,54.08-31.12,13.16-64.17,19.84-98.23,19.84h-318.15c-34.06,0-67.11-6.67-98.23-19.84-30.05-12.71-57.04-30.9-80.21-54.08-23.17-23.17-41.37-50.16-54.08-80.21-13.16-31.12-19.84-64.17-19.84-98.23v-318.15c0-34.06,6.67-67.11,19.84-98.23,12.71-30.05,30.91-57.04,54.08-80.21,23.17-23.17,50.16-41.37,80.21-54.08,31.12-13.16,64.17-19.84,98.23-19.84h318.15c34.06,0,67.11,6.67,98.23,19.84,30.05,12.71,57.04,30.9,80.21,54.08,23.17,23.17,41.37,50.16,54.08,80.21,13.16,31.12,19.84,64.17,19.84,98.23v318.15Z"/><rect class="cls-2" x="161.32" y="162.38" width="777.61" height="777.61" rx="229.73" ry="229.73"/><path class="cls-5" d="m887.64,213.66c-23.17-23.17-50.16-41.37-80.21-54.08-31.12-13.16-64.17-19.84-98.23-19.84h-318.15c-34.06,0-67.11,6.67-98.23,19.84-30.05,12.71-57.04,30.9-80.21,54.08-23.17,23.17-41.37,50.16-54.08,80.21-13.16,31.12-19.84,64.17-19.84,98.23v318.15c0,34.06,6.67,67.11,19.84,98.23,12.71,30.05,30.91,57.04,54.08,80.21,23.17,23.17,50.16,41.37,80.21,54.08,31.12,13.16,64.17,19.84,98.23,19.84h318.15c34.06,0,67.11-6.67,98.23-19.84,30.05-12.71,57.04-30.9,80.21-54.08,23.17-23.17,41.37-50.16,54.08-80.21,13.16-31.12,19.84-64.17,19.84-98.23v-318.15c0-34.06-6.67-67.11-19.84-98.23-12.71-30.05-30.91-57.04-54.08-80.21Zm51.28,496.6c0,126.67-103.06,229.73-229.73,229.73h-318.15c-126.67,0-229.73-103.06-229.73-229.73v-318.15c0-126.67,103.06-229.73,229.73-229.73h318.15c126.67,0,229.73,103.06,229.73,229.73v318.15Z"/><path class="cls-7" d="m887.64,213.66c-23.17-23.17-50.16-41.37-80.21-54.08-31.12-13.16-64.17-19.84-98.23-19.84h-318.15c-34.06,0-67.11,6.67-98.23,19.84-30.05,12.71-57.04,30.9-80.21,54.08-23.17,23.17-41.37,50.16-54.08,80.21-13.16,31.12-19.84,64.17-19.84,98.23v318.15c0,34.06,6.67,67.11,19.84,98.23,12.71,30.05,30.91,57.04,54.08,80.21,23.17,23.17,50.16,41.37,80.21,54.08,31.12,13.16,64.17,19.84,98.23,19.84h318.15c34.06,0,67.11-6.67,98.23-19.84,30.05-12.71,57.04-30.9,80.21-54.08,23.17-23.17,41.37-50.16,54.08-80.21,13.16-31.12,19.84-64.17,19.84-98.23v-318.15c0-34.06-6.67-67.11-19.84-98.23-12.71-30.05-30.91-57.04-54.08-80.21Zm51.28,496.6c0,126.67-103.06,229.73-229.73,229.73h-318.15c-126.67,0-229.73-103.06-229.73-229.73v-318.15c0-126.67,103.06-229.73,229.73-229.73h318.15c126.67,0,229.73,103.06,229.73,229.73v318.15Z"/><g class="cls-4"><path class="cls-3" d="m363.97,526.33c-3,10.27-8.56,25.68-11.77,32.31-6.2,1.28-22.9,5.14-39.16,5.14-51.14,0-77.25-34.02-77.25-71.47,0-43.65,33.17-73.82,81.1-73.82,18.4,0,33.38,3.85,40.44,4.92.86,9.63,2.35,22.47,4.07,33.17l-6.63,1.5c-4.28-14.34-9.41-23.11-20.33-27.6-5.56-2.57-14.34-4.07-22.47-4.07-35.31,0-53.92,26.11-53.92,61.41,0,41.3,21.4,67.83,56.06,67.83,21.83,0,32.53-10.06,43.44-31.46l6.42,2.14Zm150.64,35.95c-2.78,0-5.14-.21-7.92-.43-15.62-1.07-23.97-5.14-33.38-18.4-7.92-10.91-15.62-24.39-22.47-35.31-4.28-6.85-7.06-8.13-17.97-8.13h-7.49v33.59c0,18.19,2.35,19.26,19.47,20.97v5.99h-57.13v-5.99c17.76-1.93,19.26-2.78,19.26-20.97v-85.38c0-18.19-2.35-18.83-19.26-20.76v-5.99h54.57c15.62,0,26.11,1.93,34.24,7.28,8.77,5.56,14.55,15.19,14.55,28.25,0,18.4-11.77,29.96-27.6,36.8,3.85,6.63,13.05,20.97,19.47,30.6,7.92,11.34,11.98,16.69,16.9,22.04,5.78,6.2,10.7,8.56,15.62,9.84l-.86,5.99Zm-78.96-69.54c11.13,0,18.19-1.71,23.54-6.2,8.35-6.21,11.77-14.77,11.77-26.32,0-22.9-15.19-31.24-31.67-31.24-6.21,0-9.84.86-11.34,2.14-1.92,1.5-2.57,3.64-2.57,9.2v52.43h10.27Zm201.57,33.81c-1.28,5.56-7.06,27.6-9.2,34.02h-104v-5.99c19.9-1.5,21.4-3.42,21.4-20.97v-84.52c0-19.04-2.35-20.11-18.4-21.61v-5.99h65.48c20.12,0,28.46-.21,31.03-.43.21,5.35,1.07,21.4,1.93,32.74l-6.42,1.07c-1.93-7.28-4.07-11.77-6.42-16.26-3.42-7.06-8.35-8.56-21.18-8.56h-20.33c-6.63,0-7.06.64-7.06,6.85v47.29h23.75c16.05,0,17.12-3.21,19.68-17.76h6.63v44.08h-6.63c-2.78-15.41-4.49-17.55-19.9-17.55h-23.54v42.58c0,14.98,4.71,16.26,15.41,16.48h19.9c13.05,0,15.19-1.93,19.9-7.49,4.06-4.49,8.56-13.27,11.55-19.69l6.42,1.71Zm210.13-99.07c-14.98,2.14-17.12,3.85-22.9,21.4-7.06,21.4-24.18,75.75-35.95,114.05h-7.28c-11.13-33.38-25.46-74.68-36.59-106.35-12.41,36.81-25.04,73.4-36.16,106.35h-7.06c-10.7-36.81-22.9-76.82-34.45-114.27-5.56-17.33-7.92-19.69-21.83-21.18v-5.99h52.85v5.99c-15.84,1.71-16.26,4.07-13.27,14.77,8.35,28.89,16.91,57.35,25.68,87.52,11.77-34.02,24.61-71.26,35.52-106.35h6.85c11.98,36.38,23.97,70.19,36.38,106.56,8.99-28.46,21.19-66.55,25.89-85.17,3.21-12.41,1.5-15.19-16.69-17.33v-5.99h49v5.99Z"/><path class="cls-1" d="m273.48,605c-2.12-7.25-5.26-15.11-15.64-15.11-7.28,0-11.11,5.22-11.11,11.34,0,6.71,4.42,10.48,14.08,15.38,12.5,6.29,19.49,11.88,19.49,22.81,0,12.71-10.7,22.11-26.17,22.11-7.01,0-13.2-1.9-18.23-3.55-.75-2.77-2.46-13.01-3.24-18.55l4.05-.97c2.24,7.21,8.04,18.56,19.26,18.56,7.26,0,11.68-4.73,11.68-11.93s-4.23-10.93-13.8-16.09c-11.69-6.31-18.95-11.84-18.95-23.05s8.87-20.47,24.97-20.47c7.22,0,13.16,1.68,15.59,2.06.45,4.1,1.11,9.46,2.01,16.6l-3.98.89Zm109.87-14.18c-7.13.59-9.27,2.6-9.64,7.03-.26,3.09-.48,7.21-.48,15.91v13.77c0,10.26-1.49,19.65-7.92,26.42-5.19,5.42-13.03,7.53-20.9,7.53-7.08,0-14.32-1.49-19.46-5.59-6.58-5.01-9.75-12.16-9.75-24.9v-28.42c0-10.23-.97-10.97-9.64-11.76v-3.79h32.81v3.79c-8.6.71-9.57,1.53-9.57,11.76v29.17c0,13.88,6.71,22.41,19.21,22.41,14.23,0,19.78-9.86,19.78-27.29v-13.1c0-8.63-.34-12.74-.56-15.99-.41-5.11-3.35-6.51-11.35-6.96v-3.79h27.47v3.79Zm54.6-3.79c8.54,0,15.14,1.53,19.73,4.67,5.17,3.54,8.27,8.88,8.27,16.49,0,16.28-13.86,23.04-25.37,23.11-1.16,0-2.5-.11-3.24-.22l-6.93-1.8v16.02c0,9.41.78,9.78,10.73,10.75v3.79h-33.98v-3.79c8.83-1.01,9.72-1.46,9.72-10.83v-43.38c0-9.61-1.16-10.34-9.72-11.02v-3.79h30.79Zm-7.54,37.82c1.34.67,3.86,1.24,6.72,1.24,5.98,0,14.69-3.3,14.69-17.85,0-12.47-7.26-16.89-15.29-16.89-2.66,0-4.36.56-5.03,1.2-.82.71-1.09,1.91-1.09,4.06v28.24Zm93.46-37.82c8.54,0,15.14,1.53,19.73,4.67,5.17,3.54,8.27,8.88,8.27,16.49,0,16.28-13.86,23.04-25.37,23.11-1.16,0-2.5-.11-3.24-.22l-6.93-1.8v16.02c0,9.41.79,9.78,10.73,10.75v3.79h-33.98v-3.79c8.83-1.01,9.72-1.46,9.72-10.83v-43.38c0-9.61-1.16-10.34-9.72-11.02v-3.79h30.8Zm-7.55,37.82c1.34.67,3.86,1.24,6.72,1.24,5.98,0,14.69-3.3,14.69-17.85,0-12.47-7.26-16.89-15.29-16.89-2.67,0-4.36.56-5.04,1.2-.82.71-1.09,1.91-1.09,4.06v28.24Zm103.49-39.39c20.17,0,37.17,14.97,37.17,37.11,0,23.94-16.79,38.95-37.77,38.95-22.09,0-38.14-16.35-38.14-37.78,0-19.47,13.86-38.28,38.74-38.28Zm-1.88,4.65c-11.82,0-21.28,10.97-21.28,31.19s8.88,35.53,24.28,35.53c11.66,0,20.62-10.23,20.62-31.12,0-22.65-10.03-35.59-23.61-35.59Zm136.29,70.48c-.95,0-2.25-.04-3.64-.15-12.11-.63-16.33-3.34-20.24-8.83-4.36-6-7.88-12.92-11.62-19.28-1.88-3.22-3.41-3.89-7.74-3.89l-2.83-.07v16.79c0,9.23,1.16,9.93,9.76,10.9v3.79h-32.75v-3.79c8.79-.94,9.72-1.67,9.72-10.9v-43.53c0-9.09-1.16-10-9.72-10.79v-3.79h31.11c9.34,0,14.98,1.08,19.45,4.1,4.52,2.98,7.55,7.95,7.55,14.86,0,9.85-6.45,15.39-14.16,18.54,1.8,3.4,6.33,10.76,9.69,15.87,4,6.08,6.34,9.03,8.63,11.61,2.73,3.03,4.43,4.04,7.45,5.01l-.67,3.57Zm-42.21-36.55c5.17,0,8.87-.82,11.45-3.03,3.93-3.18,5.58-7.51,5.58-13.34,0-11.91-7.23-16.21-14.32-16.21-3.1,0-4.72.45-5.43,1.12-.86.71-1.12,1.98-1.12,4.45v27.01h3.85Zm122.44-18.26c-1.16-4.61-3.23-8.67-4.39-10.39-1.94-2.59-2.91-3.44-9.36-3.44h-8.58v53.32c0,9.17,1.04,10.04,11.25,10.79v3.79h-35.58v-3.79c9.83-.74,10.8-1.57,10.8-10.79v-53.32h-8.01c-6.23,0-8.02.89-10.08,3.81-1.49,2.17-2.82,5.73-4.28,10.09h-3.94c.74-7.71,1.49-15.86,1.75-21.55h3.09c1.68,2.61,2.98,2.72,6.27,2.72h44.65c3.07,0,4.4-.59,6.22-2.72h3.05c.07,4.9.52,14.13,1.08,21.14l-3.94.34Z"/></g></svg>