<?xml version="1.0" standalone="no"?>
<!DOCTYPE svg PUBLIC "-//W3C//DTD SVG 20010904//EN"
 "http://www.w3.org/TR/2001/REC-SVG-20010904/DTD/svg10.dtd">
<svg version="1.0" xmlns="http://www.w3.org/2000/svg"
 width="512.000000pt" height="512.000000pt" viewBox="0 0 512.000000 512.000000"
 preserveAspectRatio="xMidYMid meet">

<g transform="translate(0.000000,512.000000) scale(0.100000,-0.100000)"
fill="#a35ab6" stroke="none">
<path d="M2410 5114 c-395 -47 -721 -204 -989 -476 -115 -117 -204 -240 -281
-390 -130 -253 -180 -482 -180 -827 0 -153 -1 -160 -21 -166 -33 -11 -88 -65
-112 -109 -17 -34 -22 -62 -25 -161 -6 -174 17 -237 107 -300 38 -27 52 -30
127 -34 68 -2 84 -6 84 -19 0 -29 41 -100 68 -118 15 -10 40 -20 57 -24 27 -5
30 -9 27 -40 -7 -62 -61 -214 -113 -316 -77 -151 -77 -238 0 -325 49 -55 204
-142 382 -214 72 -30 133 -56 136 -58 2 -3 -5 -23 -16 -46 l-21 -40 -35 14
c-63 27 -126 18 -344 -46 -230 -68 -243 -74 -288 -121 -41 -43 -63 -96 -63
-154 0 -41 -5 -52 -46 -97 -25 -28 -62 -82 -81 -120 -57 -114 -63 -161 -63
-540 l0 -338 25 -24 c31 -32 69 -32 100 0 l25 24 0 333 c0 269 3 345 16 393
15 60 45 119 82 165 l19 23 29 -20 c16 -11 43 -24 59 -30 23 -7 64 -56 177
-209 81 -109 155 -219 164 -244 13 -33 19 -94 23 -233 6 -183 7 -189 30 -208
30 -25 62 -24 95 2 l26 20 0 176 c0 267 -13 302 -195 548 -63 85 -115 158
-115 162 0 4 69 28 153 52 161 46 240 81 264 118 9 13 19 23 23 23 4 0 44 -64
89 -143 92 -164 121 -196 179 -204 73 -10 102 3 194 82 48 41 89 75 92 75 2 0
10 -17 16 -37 7 -21 25 -54 41 -75 l28 -36 -54 -336 c-30 -184 -55 -351 -55
-370 0 -94 125 -101 144 -9 6 28 106 641 106 649 0 2 27 4 59 4 57 0 60 -1 65
-28 3 -15 28 -166 56 -337 47 -289 52 -312 76 -332 40 -36 85 -29 109 16 12
25 8 64 -44 382 l-57 354 32 47 c18 27 35 61 39 78 4 16 9 30 11 30 3 0 42
-32 87 -71 91 -79 110 -89 168 -89 82 0 108 26 214 213 42 75 81 137 85 137 4
0 14 -10 23 -23 24 -36 102 -71 264 -118 84 -24 153 -47 153 -52 0 -4 -52 -77
-115 -162 -182 -246 -195 -282 -195 -548 l0 -176 26 -20 c33 -26 65 -27 95 -2
23 19 24 25 30 208 4 139 10 200 23 233 9 25 83 135 164 244 113 153 154 202
177 209 17 6 43 19 59 30 l29 20 19 -23 c37 -46 67 -105 82 -165 13 -48 16
-124 16 -393 l0 -333 25 -24 c31 -32 69 -32 100 0 l25 24 0 338 c0 255 -4 355
-15 406 -17 82 -74 192 -132 257 -38 42 -43 54 -43 94 0 58 -22 111 -63 154
-45 47 -58 53 -288 121 -218 64 -281 73 -344 46 l-35 -14 -21 40 c-11 23 -18
43 -16 46 3 2 64 28 136 58 176 71 333 159 381 212 78 89 78 176 0 329 l-52
101 25 49 c39 78 57 152 64 261 l6 101 83 4 c73 3 87 7 125 33 24 17 57 53 74
80 30 48 30 49 30 194 0 131 -2 150 -22 187 -24 44 -79 98 -112 109 -20 6 -21
13 -21 166 0 337 -48 566 -171 810 -224 449 -633 761 -1124 859 -97 20 -372
34 -455 24z m442 -174 c283 -59 519 -189 729 -399 174 -175 275 -336 349 -560
57 -169 71 -264 76 -501 l4 -205 -20 52 c-24 59 -55 88 -110 103 l-37 10 -6
118 c-20 359 -152 654 -401 890 -144 135 -297 227 -480 287 -145 47 -231 60
-401 59 -338 0 -626 -115 -871 -346 -249 -236 -381 -530 -401 -890 l-6 -118
-37 -10 c-55 -15 -86 -44 -109 -103 l-20 -52 0 148 c-1 183 12 311 45 447 61
249 177 459 358 647 235 247 528 396 866 443 105 14 361 4 472 -20z m-154
-300 c309 -39 613 -222 787 -475 l38 -55 -39 -35 c-76 -68 -260 -203 -359
-262 -351 -211 -814 -382 -1311 -482 -110 -23 -205 -41 -211 -41 -6 0 -13 13
-16 29 -10 47 -63 100 -113 112 l-44 11 0 55 c0 29 5 97 11 150 69 620 639
1070 1257 993z m963 -882 c10 -47 22 -138 25 -201 l7 -114 -45 -11 c-50 -13
-103 -63 -114 -108 -6 -24 -12 -20 -120 86 -103 103 -116 112 -141 105 -43
-10 -63 -34 -63 -73 0 -33 14 -50 161 -198 l162 -162 -6 -214 c-4 -170 -10
-230 -26 -298 -32 -126 -105 -273 -189 -379 l-19 -23 -55 31 c-54 31 -56 31
-194 31 -113 0 -146 -4 -179 -19 -125 -57 -173 -209 -105 -328 36 -63 85 -98
158 -114 l53 -11 -3 -85 -3 -85 -195 -109 c-107 -60 -201 -109 -209 -109 -8 0
-42 16 -77 35 -71 40 -105 44 -134 15 -44 -44 -24 -102 48 -139 l32 -17 -195
-167 c-108 -92 -201 -170 -208 -173 -12 -4 -257 410 -257 435 0 13 98 211 104
211 3 0 58 -29 124 -66 95 -51 125 -64 146 -58 57 14 74 85 31 125 -22 22 -25
32 -25 108 0 75 2 82 18 76 110 -42 349 -84 405 -70 36 9 60 40 60 77 0 48
-29 65 -125 73 -359 29 -660 228 -815 540 -78 155 -97 261 -97 534 l-1 224
210 42 c446 90 828 216 1170 386 207 103 430 246 563 363 l56 48 24 -63 c13
-35 32 -103 43 -151z m-2221 -798 l0 -331 -82 3 -83 3 -3 315 c-1 173 0 320 3
327 3 9 29 13 85 13 l80 0 0 -330z m2405 0 l0 -325 -82 -3 -83 -3 0 331 0 331
83 -3 82 -3 0 -325z m-2725 5 l0 -165 -54 0 c-69 0 -83 6 -101 41 -17 32 -21
193 -5 233 13 34 55 55 113 56 l47 0 0 -165z m3001 150 c16 -9 34 -27 39 -41
16 -40 12 -201 -5 -233 -18 -35 -32 -41 -101 -41 l-54 0 0 165 0 165 45 0 c26
0 59 -7 76 -15z m-2615 -677 c23 -72 85 -195 135 -271 55 -81 218 -242 296
-292 l63 -40 0 -77 c0 -43 -2 -78 -5 -78 -3 0 -23 9 -45 20 -50 26 -103 25
-157 -1 l-44 -21 -77 26 c-111 38 -379 174 -402 203 -30 38 -25 63 31 174 55
110 103 247 114 325 10 65 21 84 50 84 19 0 26 -9 41 -52z m2267 42 l69 0 -7
-32 c-22 -105 -115 -232 -217 -299 -52 -33 -182 -79 -193 -67 -2 2 16 31 40
64 50 65 137 234 156 303 13 42 13 43 48 37 20 -3 67 -6 104 -6z m67 -440 c35
-70 37 -98 10 -133 -23 -29 -291 -165 -403 -203 l-78 -27 -43 22 c-54 26 -105
27 -156 1 -22 -11 -42 -20 -45 -20 -3 0 -5 18 -5 39 0 39 1 39 50 51 63 15
122 58 152 109 21 36 26 40 78 45 137 16 277 71 355 140 22 19 43 35 47 36 4
0 21 -27 38 -60z m-663 18 c29 -33 34 -53 21 -89 -15 -43 -58 -59 -157 -59
-121 0 -160 22 -161 89 0 22 8 43 22 58 20 21 29 23 138 23 108 0 118 -2 137
-22z m123 -588 c27 -55 50 -105 50 -111 0 -24 -245 -439 -256 -435 -7 3 -100
80 -208 172 l-196 168 103 57 c56 31 179 100 272 152 94 53 173 96 177 96 4 1
30 -44 58 -99z m-1723 -162 c31 -29 31 -87 1 -116 -29 -26 -427 -145 -454
-136 -62 22 -86 100 -43 140 25 23 378 131 433 133 28 1 47 -5 63 -21z m2245
-34 c211 -61 238 -77 238 -138 0 -33 -26 -66 -64 -80 -27 -9 -425 110 -453
136 -51 47 -15 138 54 138 18 0 119 -25 225 -56z m-1178 -166 c39 -34 73 -63
75 -64 1 -2 -7 -32 -19 -68 -29 -88 -53 -106 -140 -106 -87 0 -111 18 -140
105 l-21 64 38 33 c20 18 53 48 73 65 19 18 41 33 49 33 7 0 45 -28 85 -62z"/>
<path d="M2055 3110 c-39 -15 -50 -40 -50 -110 0 -53 4 -73 19 -89 23 -25 72
-28 104 -5 20 13 22 24 22 93 0 62 -4 81 -17 93 -24 21 -54 28 -78 18z"/>
<path d="M3013 3110 c-32 -13 -43 -41 -43 -114 0 -78 19 -106 73 -106 50 0 70
28 75 104 4 55 1 66 -19 88 -28 31 -56 40 -86 28z"/>
<path d="M2232 2580 c-44 -27 -72 -76 -72 -128 0 -58 18 -88 92 -157 185 -172
431 -172 616 0 74 69 92 99 92 157 0 52 -28 101 -72 128 -31 19 -51 20 -328
20 -277 0 -297 -1 -328 -20z m547 -166 c-53 -55 -148 -97 -219 -97 -71 0 -166
42 -219 97 l-35 36 254 0 254 0 -35 -36z"/>
</g>
</svg>
