<?xml version="1.0" standalone="no"?>
<!DOCTYPE svg PUBLIC "-//W3C//DTD SVG 20010904//EN"
 "http://www.w3.org/TR/2001/REC-SVG-20010904/DTD/svg10.dtd">
<svg version="1.0" xmlns="http://www.w3.org/2000/svg"
 width="512.000000pt" height="512.000000pt" viewBox="0 0 512.000000 512.000000"
 preserveAspectRatio="xMidYMid meet">

<g transform="translate(0.000000,512.000000) scale(0.100000,-0.100000)"
fill="#36b9cc" stroke="none">
<path d="M2641 4949 c-124 -36 -211 -166 -198 -295 3 -30 13 -68 21 -86 13
-25 16 -72 16 -258 l0 -228 -47 -7 c-103 -15 -196 -84 -243 -180 -33 -69 -34
-199 -2 -265 49 -100 131 -162 242 -185 l55 -11 8 -49 c26 -166 109 -319 239
-445 l68 -67 0 -134 c0 -150 -4 -176 -30 -184 -9 -3 -47 -41 -84 -83 l-66 -78
-298 -53 c-163 -29 -315 -59 -337 -66 -21 -8 -40 -13 -42 -12 -1 2 10 39 25
82 l27 80 0 735 0 735 -27 80 c-40 116 -92 199 -183 290 -91 91 -174 143 -290
183 l-80 27 -335 0 c-335 0 -335 0 -412 -26 -120 -41 -204 -94 -294 -183 -89
-90 -142 -174 -183 -294 l-26 -77 0 -735 0 -735 27 -80 c40 -116 92 -199 183
-290 91 -92 175 -144 290 -182 74 -24 96 -27 302 -31 l221 -4 7 -36 c4 -20 13
-49 22 -65 l14 -29 -168 4 -168 3 -92 43 c-51 24 -108 46 -127 49 -69 11 -146
-33 -177 -101 -16 -36 -19 -68 -19 -242 0 -229 8 -267 67 -328 76 -78 317
-176 435 -176 39 0 48 -3 48 -17 0 -10 -16 -187 -35 -393 -19 -205 -32 -376
-29 -379 5 -5 145 -20 151 -16 2 1 10 82 18 181 9 98 18 189 21 202 l4 22 220
0 220 0 0 -200 0 -200 80 0 80 0 0 813 c0 882 0 877 55 972 31 53 109 126 161
153 38 20 87 34 152 46 l32 6 0 -995 0 -995 80 0 80 0 2 1007 3 1008 140 27
c77 14 143 23 146 20 3 -4 137 -365 297 -802 l292 -795 0 -232 0 -233 80 0 80
0 0 233 0 232 292 795 c160 437 294 798 297 802 3 3 69 -6 146 -20 l140 -27 3
-568 2 -567 -295 0 -296 0 -24 -25 c-25 -24 -25 -26 -25 -215 0 -189 0 -191
25 -215 l24 -25 296 0 295 0 0 -200 0 -200 80 0 80 0 0 995 0 995 33 -6 c64
-12 113 -26 151 -46 52 -27 130 -100 161 -153 55 -95 55 -90 55 -972 l0 -813
80 0 80 0 0 818 c0 670 -3 829 -15 885 -38 182 -189 351 -365 410 -25 8 -179
39 -343 68 l-297 53 -66 78 c-37 42 -75 80 -84 83 -26 8 -30 34 -30 184 l0
134 68 67 c130 126 213 279 239 445 l8 49 55 11 c68 14 153 59 186 98 14 17
37 53 52 81 22 43 26 64 26 136 1 78 -2 90 -33 148 -51 95 -131 152 -234 167
l-47 7 0 223 c0 122 -5 246 -10 275 -23 120 -127 259 -238 318 -114 61 -127
62 -667 61 -283 0 -504 -5 -524 -10z m506 -269 l72 -120 -107 0 -107 0 -72
120 -72 120 107 0 107 0 72 -120z m400 0 l72 -120 -107 0 -107 0 -72 120 -72
120 107 0 107 0 72 -120z m-794 -9 l68 -113 -76 4 c-69 3 -78 6 -108 36 -27
28 -32 39 -32 82 0 40 5 54 30 80 16 16 34 29 39 27 6 -2 41 -54 79 -116z
m999 87 c65 -34 107 -78 138 -145 11 -24 20 -45 20 -48 0 -3 -24 -5 -53 -5
l-52 0 -47 78 c-88 147 -90 152 -78 152 7 0 39 -14 72 -32z m-958 -362 c7 -2
-140 -186 -150 -186 -2 0 -4 44 -4 99 l0 98 73 -4 c39 -3 76 -6 81 -7z m813
-68 c69 -88 154 -187 245 -287 l68 -75 0 -255 c0 -298 -9 -355 -72 -481 -105
-210 -332 -350 -568 -350 -236 0 -466 142 -569 350 -62 127 -71 184 -71 480
l0 255 81 90 c45 50 129 147 186 218 l104 127 269 0 269 0 58 -72z m313 -23
c0 -52 -2 -95 -4 -95 -4 0 -139 159 -150 178 -5 9 12 12 73 12 l81 0 0 -95z
m-2459 -16 c95 -37 148 -70 213 -135 65 -65 98 -117 135 -213 l26 -66 3 -687
c3 -768 4 -760 -66 -892 -41 -78 -125 -170 -195 -210 -41 -25 -48 -26 -94 -15
-71 16 -133 4 -195 -37 l-53 -36 -235 4 c-258 5 -287 11 -405 78 -126 72 -239
231 -264 374 -15 81 -15 1331 0 1412 17 98 78 210 154 286 73 73 192 140 280
157 28 5 181 9 340 7 284 -2 291 -2 356 -27z m1019 -530 l0 -161 -32 6 c-17 3
-47 18 -66 32 -94 73 -76 221 33 270 66 29 65 31 65 -147z m1664 147 c18 -8
46 -31 62 -52 24 -31 29 -47 29 -95 0 -43 -5 -65 -21 -85 -28 -39 -63 -63
-101 -70 l-33 -6 0 161 c0 178 -2 174 64 147z m-1112 -1145 c166 -57 339 -52
551 16 15 5 17 -3 17 -84 0 -50 3 -110 6 -134 l6 -44 -166 -55 -166 -54 -166
54 -166 55 6 44 c3 24 6 84 6 132 0 49 4 89 8 89 5 0 34 -9 64 -19z m101 -481
c4 -4 -49 -78 -118 -164 -70 -87 -130 -155 -133 -151 -4 3 -34 81 -68 173
l-61 167 36 41 35 41 151 -50 c82 -27 154 -53 158 -57z m645 -55 c-16 -44 -43
-118 -60 -165 -17 -47 -34 -89 -38 -93 -8 -9 -247 280 -252 304 -2 7 57 32
152 64 l155 52 36 -41 37 -41 -30 -80z m-455 -84 l37 -49 0 -500 0 -501 -36
-100 c-20 -56 -40 -101 -44 -101 -4 0 -24 45 -44 101 l-36 100 0 501 0 500 38
49 c20 26 39 48 42 48 3 0 22 -22 43 -48z m-1854 -238 c12 -10 46 -78 76 -152
l55 -134 0 -248 0 -249 -327 0 c-243 0 -341 4 -378 14 -70 18 -232 102 -245
125 -13 25 -14 378 0 386 5 3 41 -10 80 -30 113 -57 165 -65 428 -65 l233 0
24 25 c14 13 25 35 25 48 0 13 -20 65 -45 116 -25 51 -45 101 -45 112 0 28 44
69 73 69 14 0 34 -8 46 -17z m1569 -275 l-3 -93 -42 117 c-24 64 -43 119 -43
123 0 3 19 30 43 59 l42 52 3 -82 c1 -46 1 -125 0 -176z m572 146 c0 -9 -81
-228 -86 -233 -2 -2 -4 76 -4 173 l0 178 45 -55 c25 -31 45 -59 45 -63z
m-2010 -934 l0 -120 -216 0 -216 0 5 33 c3 17 9 71 13 120 l6 87 204 0 204 0
0 -120z m2640 -40 l0 -80 -240 0 -240 0 0 80 0 80 240 0 240 0 0 -80z"/>
<path d="M2875 3991 c-45 -20 -70 -60 -70 -112 0 -42 5 -53 33 -81 28 -28 39
-33 82 -33 43 0 54 5 82 33 28 28 33 39 33 82 0 42 -5 54 -31 81 -33 33 -92
46 -129 30z"/>
<path d="M3595 3991 c-45 -20 -70 -60 -70 -112 0 -42 5 -53 33 -81 28 -28 39
-33 82 -33 43 0 54 5 82 33 28 28 33 39 33 82 0 42 -5 54 -31 81 -33 33 -92
46 -129 30z"/>
<path d="M3395 3494 c-33 -7 -126 -16 -207 -20 l-148 -7 0 -79 0 -78 83 0
c119 1 276 17 349 35 34 9 64 18 66 20 2 2 -6 35 -18 74 -24 80 -20 78 -125
55z"/>
<path d="M786 4149 c-63 -15 -153 -68 -197 -116 -22 -24 -55 -74 -72 -111
l-32 -67 0 -695 0 -695 32 -67 c44 -93 100 -151 191 -196 l76 -37 296 0 296 0
76 37 c91 45 147 103 191 196 l32 67 0 695 0 695 -32 67 c-44 93 -100 151
-191 196 l-76 37 -275 2 c-152 1 -293 -3 -315 -8z m568 -161 c45 -13 146 -105
146 -132 0 -14 -46 -16 -420 -16 -374 0 -420 2 -420 16 0 24 101 119 140 131
50 16 501 17 554 1z m166 -507 l0 -198 -46 -7 c-61 -8 -158 -61 -195 -105 -16
-20 -39 -57 -51 -83 l-22 -48 -59 0 c-90 0 -135 -17 -192 -75 -102 -101 -102
-229 0 -330 70 -70 92 -75 349 -75 242 0 227 5 204 -74 -16 -55 -99 -138 -154
-154 -57 -17 -491 -17 -548 0 -55 16 -138 99 -154 154 -9 30 -12 194 -12 618
l0 576 440 0 440 0 0 -199z m0 -561 l0 -200 -215 0 c-216 0 -216 0 -240 25
-33 32 -33 78 0 110 23 24 31 25 135 25 104 0 112 1 135 25 16 15 25 36 25 54
0 62 38 122 95 147 67 30 65 36 65 -186z"/>
</g>
</svg>
