<?xml version="1.0" standalone="no"?>
<!DOCTYPE svg PUBLIC "-//W3C//DTD SVG 20010904//EN"
 "http://www.w3.org/TR/2001/REC-SVG-20010904/DTD/svg10.dtd">
<svg version="1.0" xmlns="http://www.w3.org/2000/svg"
 width="128.000000pt" height="128.000000pt" viewBox="0 0 128.000000 128.000000"
 preserveAspectRatio="xMidYMid meet">

<g transform="translate(0.000000,128.000000) scale(0.100000,-0.100000)"
fill="#4e73df" stroke="none">
<path d="M553 1270 c-91 -19 -198 -85 -233 -143 -30 -49 -26 -84 15 -123 31
-29 35 -38 35 -83 0 -27 -4 -53 -10 -56 -5 -3 -10 -23 -10 -44 0 -38 17 -61
53 -74 9 -4 17 -15 17 -25 0 -21 48 -100 73 -121 20 -16 23 -80 5 -85 -243
-69 -286 -83 -304 -102 -22 -21 -54 -157 -41 -170 17 -17 35 9 41 58 4 29 14
64 23 77 l16 25 8 -22 c13 -34 30 -35 108 -12 72 21 77 26 71 75 -1 12 16 -5
43 -42 46 -62 73 -84 93 -76 6 2 16 -3 23 -11 10 -11 7 -42 -11 -143 l-23
-128 -123 -3 -123 -3 6 23 c3 13 6 43 7 68 2 34 -1 45 -12 45 -11 0 -18 -18
-25 -65 l-11 -65 -54 0 -55 0 4 40 c8 70 6 98 -5 102 -16 5 -24 -21 -31 -96
-5 -55 -4 -66 12 -77 15 -11 112 -14 503 -14 314 0 490 4 503 10 13 8 19 21
19 48 0 61 -49 325 -65 349 -14 21 -116 58 -265 96 -51 13 -55 16 -58 47 -3
24 3 39 21 59 34 35 67 92 67 114 0 10 8 20 18 24 35 13 52 36 52 74 0 21 -4
41 -10 44 -5 3 -10 29 -10 56 0 45 4 54 35 83 41 39 45 74 15 123 -25 42 -101
98 -168 123 -62 23 -178 33 -239 20z m210 -51 c107 -36 183 -105 175 -159 -4
-29 -28 -39 -28 -12 0 35 -32 62 -82 68 -39 6 -48 4 -48 -8 0 -10 16 -20 45
-27 41 -10 45 -14 45 -41 0 -30 0 -30 -60 -30 -57 0 -60 1 -48 20 20 31 1 40
-64 28 -39 -7 -77 -7 -115 0 -66 12 -85 3 -65 -28 12 -19 9 -20 -48 -20 -60 0
-60 0 -60 29 0 20 6 31 18 35 76 22 118 28 199 28 85 0 93 1 93 19 0 17 -8 19
-84 19 -164 0 -266 -35 -266 -92 0 -27 -24 -17 -28 12 -5 34 16 67 68 105 99
73 235 94 353 54z m-98 -229 l-25 -25 -25 25 -25 25 50 0 50 0 -25 -25z m-62
-40 c14 -11 30 -20 37 -20 7 0 23 9 37 20 21 16 40 20 107 19 l81 -1 -44 -20
c-94 -43 -268 -43 -362 0 l-44 20 81 1 c67 1 86 -3 107 -19z m-163 -61 c0 -12
-5 -16 -15 -13 -8 4 -15 17 -15 31 0 22 2 24 15 13 8 -7 15 -21 15 -31z m418
-10 c-18 -12 -23 17 -6 38 12 15 13 14 16 -7 2 -12 -2 -27 -10 -31z m-218 1
c52 0 110 4 128 9 29 9 32 8 32 -12 0 -13 7 -33 16 -46 24 -33 14 -106 -21
-159 -58 -88 -157 -116 -240 -68 -82 48 -131 171 -91 227 9 13 16 33 16 46 0
20 3 21 32 12 18 -5 76 -9 128 -9z m-230 -65 c0 -14 -4 -25 -10 -25 -5 0 -10
11 -10 25 0 14 5 25 10 25 6 0 10 -11 10 -25z m480 0 c0 -14 -4 -25 -10 -25
-5 0 -10 11 -10 25 0 14 5 25 10 25 6 0 10 -11 10 -25z m-250 -270 c25 0 54 3
66 8 18 6 22 2 32 -30 12 -40 15 -35 -60 -89 l-38 -27 -37 27 c-76 54 -73 49
-61 89 10 32 14 36 32 30 12 -5 41 -8 66 -8z m-95 -116 c30 -23 55 -43 55 -44
0 -2 -13 -8 -30 -13 -28 -10 -31 -8 -65 37 -55 76 -43 83 40 20z m265 35 c0
-4 -16 -28 -35 -55 -34 -46 -37 -47 -66 -37 -33 12 -34 11 31 62 42 32 70 45
70 30z m49 -21 c-4 -47 1 -52 72 -73 77 -23 95 -21 107 11 8 19 9 20 22 4 17
-21 72 -326 61 -338 -5 -5 -30 -7 -57 -5 l-48 3 -11 65 c-7 47 -14 65 -25 65
-11 0 -14 -11 -12 -45 1 -25 4 -55 7 -68 l6 -23 -123 3 -123 3 -23 128 c-18
102 -21 132 -11 143 7 8 18 13 25 10 18 -7 56 26 95 83 38 56 41 59 38 34z
m-474 -13 c8 -13 -96 -43 -109 -30 -6 6 -1 13 15 18 55 21 86 25 94 12z m604
-12 c16 -6 21 -12 15 -18 -13 -13 -117 17 -108 31 6 10 47 5 93 -13z m-321
-75 c2 -9 -7 -13 -27 -13 -30 0 -39 9 -24 24 11 10 46 3 51 -11z m4 -159 c10
-54 20 -109 23 -121 5 -22 3 -23 -55 -23 -54 0 -61 2 -56 18 3 9 12 60 21 112
20 117 22 123 37 118 7 -3 20 -49 30 -104z"/>
<path d="M741 261 c0 -16 92 -101 108 -101 14 0 111 91 111 104 0 9 -30 12
-110 12 -94 0 -110 -2 -109 -15z m127 -37 c-11 -11 -23 -14 -35 -9 -15 7 -13
9 12 15 17 4 32 8 35 9 2 0 -3 -6 -12 -15z"/>
</g>
</svg>
